# xmcd
#
# Track frame offsets:
#	150
#	16220
#	36632
#
# Disc length: 708 seconds
#
# Revision: 0
# Processed by: cddbd v1.5.2PL0 Copyright (c) Steve Scherf et al.
# Submitted via: audiograbber 1.83.01
#
DISCID=1f02c203
DTITLE=Jonas - Changes [CDM)
DYEAR=2001
DGENRE=Drum and Bass
TTITLE0=Changes (Radio Edit)
TTITLE1=Changes (Club Mix)
TTITLE2=Changes (Instrumental)
EXTD=TR.
EXTT0=
EXTT1=
EXTT2=
PLAYORDER=
